<?xml version="1.0" encoding="UTF-8"?>
<svg width="128" height="128" viewBox="0 0 128 128" version="1.1" xmlns="http://www.w3.org/2000/svg">
  <title>Markdown Editor Viewer</title>
  <desc>GNOME-style application icon for a Markdown editor/viewer: a dimensional document with split source and preview panes.</desc>

  <defs>
    <linearGradient id="paper-top" x1="26" y1="14" x2="102" y2="108" gradientUnits="userSpaceOnUse">
      <stop offset="0" stop-color="#ffffff"/>
      <stop offset="1" stop-color="#f6f5f4"/>
    </linearGradient>
    <linearGradient id="accent" x1="30" y1="26" x2="30" y2="102" gradientUnits="userSpaceOnUse">
      <stop offset="0" stop-color="#57e389"/>
      <stop offset="1" stop-color="#2ec27e"/>
    </linearGradient>
  </defs>

  <!-- Stacked back sheets for depth, kept fully behind the main surface. -->
  <path d="M34 20h64c6 0 11 5 11 11v62c0 6-5 11-11 11H34c-6 0-11-5-11-11V31c0-6 5-11 11-11z" fill="#c0bfbc"/>
  <path d="M32 17h66c6 0 11 5 11 11v62c0 6-5 11-11 11H32c-6 0-11-5-11-11V28c0-6 5-11 11-11z" fill="#deddda"/>

  <!-- Main top surface. -->
  <path d="M30 14h68c6 0 11 5 11 11v71c0 6-5 11-11 11H30c-6 0-11-5-11-11V25c0-6 5-11 11-11z" fill="url(#paper-top)"/>

  <!-- Left green editor spine. -->
  <rect x="28" y="30" width="4" height="64" rx="4" fill="url(#accent)"/>

  <!-- Split between source and rendered preview. -->
  <rect x="63" y="22" width="2" height="78" rx="1" fill="#deddda"/>

  <!-- Source pane: hash glyph + heading + body lines. -->
  <g fill="#241f31">
    <rect x="39" y="34" width="3" height="18" rx="1.5"/>
    <rect x="46" y="34" width="3" height="18" rx="1.5"/>
    <rect x="37" y="39" width="14" height="3" rx="1.5"/>
    <rect x="37" y="46" width="14" height="3" rx="1.5"/>
  </g>
  <g fill="#5e5c64">
    <rect x="37" y="60" width="20" height="4" rx="2"/>
    <rect x="37" y="70" width="14" height="4" rx="2"/>
    <rect x="37" y="80" width="18" height="4" rx="2"/>
  </g>

  <!-- Preview pane: title, body, quote block. -->
  <g>
    <rect x="71" y="36" width="22" height="6" rx="3" fill="#3584e4"/>
    <rect x="71" y="50" width="26" height="4" rx="2" fill="#77767b"/>
    <rect x="71" y="60" width="20" height="4" rx="2" fill="#77767b"/>
    <rect x="71" y="74" width="4" height="16" rx="2" fill="#33d17a"/>
    <rect x="79" y="76" width="18" height="4" rx="2" fill="#5e5c64"/>
    <rect x="79" y="86" width="12" height="4" rx="2" fill="#5e5c64"/>
  </g>

  <!-- Top-edge highlight kept inside the silhouette. -->
  <path d="M30 16h66c5 0 9 4 9 9" fill="none" stroke="#ffffff" stroke-opacity=".7" stroke-width="2" stroke-linecap="round" stroke-linejoin="round"/>
</svg>
